<?xml version="1.0" encoding="utf-8"?>
<!-- Generator: Adobe Illustrator 24.0.2, SVG Export Plug-In . SVG Version: 6.00 Build 0)  -->
<svg version="1.1" id="Calque_1" xmlns="http://www.w3.org/2000/svg" xmlns:xlink="http://www.w3.org/1999/xlink" x="0px" y="0px"
	 viewBox="0 0 67.02 64.44" style="enable-background:new 0 0 67.02 64.44;" xml:space="preserve">
<style type="text/css">
	.st0{fill:none;stroke:#E30613;stroke-width:5;stroke-miterlimit:10;}
</style>
<g>
	<g>
		<path d="M18.77,34.48c-0.25,0.27-0.45,0.6-0.45,0.85c0,0.4,0.47,0.92,1.42,0.92c0.8,0,2,0,2.82,0c1.52,0,3.75,0.63,3.75,3.07
			c0,2.82-3.45,5.07-6.77,5.07c-3.27,0-4.75-1.6-4.75-2.97c0-0.6,0.23-1,0.75-1.37c0.67-0.48,1.32-0.9,1.87-1.25
			c-1-0.38-1.52-0.87-1.87-1.4c-0.3-0.4-0.45-1.02-0.4-1.38c1.17-0.5,2.22-1.25,2.7-1.82L18.77,34.48z M19.97,34.73
			c-2.85,0-4.7-1.52-4.7-3.77c0-2.7,2.6-3.97,4.85-3.97c1.05,0,1.9,0.2,2.82,0.65c1.05,0,2.82-0.17,3.45-0.35l0.13,0.2
			c-0.15,0.45-0.47,1.27-0.92,1.55c-0.42,0-1.12-0.1-1.47-0.13c0.38,0.45,0.6,1.1,0.6,2.05C24.72,33.45,22.42,34.73,19.97,34.73z
			 M20.27,38.88c-1.27,0-1.9,0.15-2.27,0.47c-0.42,0.35-0.7,0.85-0.7,1.38c0,1.32,1.25,2.35,3.4,2.35c1.92,0,3.12-0.9,3.12-2.25
			c0-0.92-0.6-1.52-1.37-1.72C21.77,38.93,21.2,38.88,20.27,38.88z M20,27.93c-0.77,0-1.55,0.92-1.55,2.75c0,1.7,0.57,3.1,1.75,3.1
			c0.97,0,1.52-1.02,1.52-2.82C21.72,29.38,21.2,27.93,20,27.93z"/>
		<path d="M35.25,38.38v-0.92c1.57-0.23,1.57-0.5,1.22-1.57C36.22,35.13,35.82,34,35.45,33h-4.87c-0.27,0.77-0.63,1.72-0.88,2.5
			c-0.52,1.57,0.08,1.77,2.05,1.95v0.92h-6.17v-0.92c1.57-0.2,1.97-0.42,2.82-2.52l5.2-12.92l1.2-0.22c1.6,4.35,3.3,8.8,4.92,12.97
			c0.92,2.32,1.15,2.5,2.77,2.7v0.92H35.25z M33.05,26.43c-0.72,1.8-1.42,3.47-2.05,5.3h3.97L33.05,26.43z"/>
		<path d="M42.78,38.38v-0.92c1.9-0.17,2.12-0.32,2.12-2.42V25.5c0-2.1-0.25-2.3-2.12-2.45v-0.92h7.72v0.92
			c-1.87,0.17-2.12,0.35-2.12,2.45v9.52c0,2.07,0.22,2.22,2.12,2.42v0.92H42.78z"/>
	</g>
</g>
<g>
	<ellipse class="st0" cx="33.63" cy="32.6" rx="29.11" ry="28.34"/>
	<line class="st0" x1="12.69" y1="12.43" x2="52.01" y2="54.56"/>
</g>
</svg>
